<svg width="32" height="32" viewBox="0 0 32 32" fill="none" xmlns="http://www.w3.org/2000/svg">
<path d="M13.6187 6.61875L21.2938 14.2937C21.7438 14.7437 22 15.3625 22 16C22 16.6375 21.7438 17.2562 21.2938 17.7062L13.6187 25.3813C13.2188 25.7812 12.6812 26 12.1187 26C10.95 26 10 25.05 10 23.8813V20H2C0.89375 20 0 19.1063 0 18V14C0 12.8938 0.89375 12 2 12H10V8.11875C10 6.95 10.95 6 12.1187 6C12.6812 6 13.2188 6.225 13.6187 6.61875ZM22 26H26C27.1063 26 28 25.1063 28 24V8C28 6.89375 27.1063 6 26 6H22C20.8937 6 20 5.10625 20 4C20 2.89375 20.8937 2 22 2H26C29.3125 2 32 4.6875 32 8V24C32 27.3125 29.3125 30 26 30H22C20.8937 30 20 29.1063 20 28C20 26.8937 20.8937 26 22 26Z" fill="#3BD16F"/>
</svg>
