<svg width="95" height="36" viewBox="0 0 95 36" fill="none" xmlns="http://www.w3.org/2000/svg">
<path d="M5 18.5C5 8.83502 12.835 1 22.5 1H72.5C82.165 1 90 8.83502 90 18.5C90 28.165 82.165 36 72.5 36H47.5H22.5C12.835 36 5 28.165 5 18.5Z" fill="#3BD16F"/>
<path d="M16.594 18.664C16.594 17.416 16.864 16.306 17.404 15.334C17.944 14.35 18.694 13.588 19.654 13.048C20.626 12.496 21.724 12.22 22.948 12.22C24.448 12.22 25.732 12.616 26.8 13.408C27.868 14.2 28.582 15.28 28.942 16.648H25.558C25.306 16.12 24.946 15.718 24.478 15.442C24.022 15.166 23.5 15.028 22.912 15.028C21.964 15.028 21.196 15.358 20.608 16.018C20.02 16.678 19.726 17.56 19.726 18.664C19.726 19.768 20.02 20.65 20.608 21.31C21.196 21.97 21.964 22.3 22.912 22.3C23.5 22.3 24.022 22.162 24.478 21.886C24.946 21.61 25.306 21.208 25.558 20.68H28.942C28.582 22.048 27.868 23.128 26.8 23.92C25.732 24.7 24.448 25.09 22.948 25.09C21.724 25.09 20.626 24.82 19.654 24.28C18.694 23.728 17.944 22.966 17.404 21.994C16.864 21.022 16.594 19.912 16.594 18.664ZM30.2149 19.96C30.2149 18.928 30.4069 18.022 30.7909 17.242C31.1869 16.462 31.7209 15.862 32.3929 15.442C33.0649 15.022 33.8149 14.812 34.6429 14.812C35.3509 14.812 35.9689 14.956 36.4969 15.244C37.0369 15.532 37.4509 15.91 37.7389 16.378V14.956H40.8169V25H37.7389V23.578C37.4389 24.046 37.0189 24.424 36.4789 24.712C35.9509 25 35.3329 25.144 34.6249 25.144C33.8089 25.144 33.0649 24.934 32.3929 24.514C31.7209 24.082 31.1869 23.476 30.7909 22.696C30.4069 21.904 30.2149 20.992 30.2149 19.96ZM37.7389 19.978C37.7389 19.21 37.5229 18.604 37.0909 18.16C36.6709 17.716 36.1549 17.494 35.5429 17.494C34.9309 17.494 34.4089 17.716 33.9769 18.16C33.5569 18.592 33.3469 19.192 33.3469 19.96C33.3469 20.728 33.5569 21.34 33.9769 21.796C34.4089 22.24 34.9309 22.462 35.5429 22.462C36.1549 22.462 36.6709 22.24 37.0909 21.796C37.5229 21.352 37.7389 20.746 37.7389 19.978ZM46.1217 16.63C46.4817 16.078 46.9317 15.646 47.4717 15.334C48.0117 15.01 48.6117 14.848 49.2717 14.848V18.106H48.4257C47.6577 18.106 47.0817 18.274 46.6977 18.61C46.3137 18.934 46.1217 19.51 46.1217 20.338V25H43.0437V14.956H46.1217V16.63ZM54.829 25.144C53.953 25.144 53.173 24.994 52.489 24.694C51.805 24.394 51.265 23.986 50.869 23.47C50.473 22.942 50.251 22.354 50.203 21.706H53.245C53.281 22.054 53.443 22.336 53.731 22.552C54.019 22.768 54.373 22.876 54.793 22.876C55.177 22.876 55.471 22.804 55.675 22.66C55.891 22.504 55.999 22.306 55.999 22.066C55.999 21.778 55.849 21.568 55.549 21.436C55.249 21.292 54.763 21.136 54.091 20.968C53.371 20.8 52.771 20.626 52.291 20.446C51.811 20.254 51.397 19.96 51.049 19.564C50.701 19.156 50.527 18.61 50.527 17.926C50.527 17.35 50.683 16.828 50.995 16.36C51.319 15.88 51.787 15.502 52.399 15.226C53.023 14.95 53.761 14.812 54.613 14.812C55.873 14.812 56.863 15.124 57.583 15.748C58.315 16.372 58.735 17.2 58.843 18.232H55.999C55.951 17.884 55.795 17.608 55.531 17.404C55.279 17.2 54.943 17.098 54.523 17.098C54.163 17.098 53.887 17.17 53.695 17.314C53.503 17.446 53.407 17.632 53.407 17.872C53.407 18.16 53.557 18.376 53.857 18.52C54.169 18.664 54.649 18.808 55.297 18.952C56.041 19.144 56.647 19.336 57.115 19.528C57.583 19.708 57.991 20.008 58.339 20.428C58.699 20.836 58.885 21.388 58.897 22.084C58.897 22.672 58.729 23.2 58.393 23.668C58.069 24.124 57.595 24.484 56.971 24.748C56.359 25.012 55.645 25.144 54.829 25.144ZM70.2481 19.816C70.2481 20.104 70.2301 20.404 70.1941 20.716H63.2281C63.2761 21.34 63.4741 21.82 63.8221 22.156C64.1821 22.48 64.6201 22.642 65.1361 22.642C65.9041 22.642 66.4381 22.318 66.7381 21.67H70.0141C69.8461 22.33 69.5401 22.924 69.0961 23.452C68.6641 23.98 68.1181 24.394 67.4581 24.694C66.7981 24.994 66.0601 25.144 65.2441 25.144C64.2601 25.144 63.3841 24.934 62.6161 24.514C61.8481 24.094 61.2481 23.494 60.8161 22.714C60.3841 21.934 60.1681 21.022 60.1681 19.978C60.1681 18.934 60.3781 18.022 60.7981 17.242C61.2301 16.462 61.8301 15.862 62.5981 15.442C63.3661 15.022 64.2481 14.812 65.2441 14.812C66.2161 14.812 67.0801 15.016 67.8361 15.424C68.5921 15.832 69.1801 16.414 69.6001 17.17C70.0321 17.926 70.2481 18.808 70.2481 19.816ZM67.0981 19.006C67.0981 18.478 66.9181 18.058 66.5581 17.746C66.1981 17.434 65.7481 17.278 65.2081 17.278C64.6921 17.278 64.2541 17.428 63.8941 17.728C63.5461 18.028 63.3301 18.454 63.2461 19.006H67.0981ZM77.4699 22.39V25H75.9039C74.7879 25 73.9179 24.73 73.2939 24.19C72.6699 23.638 72.3579 22.744 72.3579 21.508V17.512H71.1339V14.956H72.3579V12.508H75.4359V14.956H77.4519V17.512H75.4359V21.544C75.4359 21.844 75.5079 22.06 75.6519 22.192C75.7959 22.324 76.0359 22.39 76.3719 22.39H77.4699Z" fill="white"/>
</svg>
