<svg width="29" height="27" viewBox="0 0 29 27" fill="none" xmlns="http://www.w3.org/2000/svg">
<path d="M16.9167 10.4625V13.725H20.0583C20.3 13.725 20.4208 13.95 20.4208 14.175L19.9375 16.3125C19.9375 16.425 19.6958 16.5375 19.575 16.5375H16.9167V24.75H13.2917V16.65H11.2375C10.9958 16.65 10.875 16.5375 10.875 16.3125V14.175C10.875 13.95 10.9958 13.8375 11.2375 13.8375H13.2917V10.125C13.2917 8.2125 14.8625 6.75 16.9167 6.75H20.1792C20.4208 6.75 20.5417 6.8625 20.5417 7.0875V9.7875C20.5417 10.0125 20.4208 10.125 20.1792 10.125H17.2792C17.0375 10.125 16.9167 10.2375 16.9167 10.4625Z" stroke="black" stroke-width="1.5" stroke-miterlimit="10" stroke-linecap="round"/>
<path d="M18.125 24.75H10.875C4.83335 24.75 2.41669 22.5 2.41669 16.875V10.125C2.41669 4.5 4.83335 2.25 10.875 2.25H18.125C24.1667 2.25 26.5834 4.5 26.5834 10.125V16.875C26.5834 22.5 24.1667 24.75 18.125 24.75Z" stroke="black" stroke-width="1.5" stroke-linecap="round" stroke-linejoin="round"/>
</svg>
