<svg width="29" height="29" viewBox="0 0 29 29" fill="none" xmlns="http://www.w3.org/2000/svg">
<path d="M10.875 26.5833H18.125C24.1667 26.5833 26.5834 24.1666 26.5834 18.125V10.875C26.5834 4.83329 24.1667 2.41663 18.125 2.41663H10.875C4.83335 2.41663 2.41669 4.83329 2.41669 10.875V18.125C2.41669 24.1666 4.83335 26.5833 10.875 26.5833Z" stroke="black" stroke-width="1.5" stroke-linecap="round" stroke-linejoin="round"/>
<path d="M14.5 18.7292C15.0554 18.7292 15.6053 18.6198 16.1184 18.4073C16.6315 18.1947 17.0977 17.8832 17.4905 17.4905C17.8832 17.0978 18.1947 16.6316 18.4072 16.1185C18.6198 15.6054 18.7291 15.0554 18.7291 14.5C18.7291 13.9447 18.6198 13.3947 18.4072 12.8816C18.1947 12.3685 17.8832 11.9023 17.4905 11.5096C17.0977 11.1169 16.6315 10.8053 16.1184 10.5928C15.6053 10.3803 15.0554 10.2709 14.5 10.2709C13.3783 10.2709 12.3026 10.7164 11.5095 11.5096C10.7164 12.3027 10.2708 13.3784 10.2708 14.5C10.2708 15.6217 10.7164 16.6974 11.5095 17.4905C12.3026 18.2836 13.3783 18.7292 14.5 18.7292Z" stroke="black" stroke-width="1.5" stroke-linecap="round" stroke-linejoin="round"/>
<path d="M21.3102 8.45837H21.3251" stroke="black" stroke-width="2" stroke-linecap="round" stroke-linejoin="round"/>
</svg>
