<svg width="67" height="30" viewBox="0 0 67 30" fill="none" xmlns="http://www.w3.org/2000/svg">
<g clip-path="url(#clip0_22_70)">
<path d="M8.602 15.114C8.602 14.162 8.81667 13.308 9.246 12.552C9.67533 11.7867 10.2587 11.1893 10.996 10.76C11.7427 10.3307 12.5687 10.116 13.474 10.116C14.538 10.116 15.4667 10.3727 16.26 10.886C17.0533 11.3993 17.632 12.1273 17.996 13.07H16.47C16.1993 12.482 15.8073 12.0293 15.294 11.712C14.79 11.3947 14.1833 11.236 13.474 11.236C12.7927 11.236 12.1813 11.3947 11.64 11.712C11.0987 12.0293 10.674 12.482 10.366 13.07C10.058 13.6487 9.904 14.33 9.904 15.114C9.904 15.8887 10.058 16.57 10.366 17.158C10.674 17.7367 11.0987 18.1847 11.64 18.502C12.1813 18.8193 12.7927 18.978 13.474 18.978C14.1833 18.978 14.79 18.824 15.294 18.516C15.8073 18.1987 16.1993 17.746 16.47 17.158H17.996C17.632 18.0913 17.0533 18.8147 16.26 19.328C15.4667 19.832 14.538 20.084 13.474 20.084C12.5687 20.084 11.7427 19.874 10.996 19.454C10.2587 19.0247 9.67533 18.432 9.246 17.676C8.81667 16.92 8.602 16.066 8.602 15.114ZM25.6605 17.83H21.4045L20.6205 20H19.2765L22.8045 10.298H24.2745L27.7885 20H26.4445L25.6605 17.83ZM25.2965 16.794L23.5325 11.866L21.7685 16.794H25.2965ZM34.464 20L32.14 16.01H30.6V20H29.326V10.242H32.476C33.2134 10.242 33.834 10.368 34.338 10.62C34.8514 10.872 35.234 11.2127 35.486 11.642C35.738 12.0713 35.864 12.5613 35.864 13.112C35.864 13.784 35.668 14.3767 35.276 14.89C34.8934 15.4033 34.3147 15.744 33.54 15.912L35.99 20H34.464ZM30.6 14.988H32.476C33.1667 14.988 33.6847 14.82 34.03 14.484C34.3754 14.1387 34.548 13.6813 34.548 13.112C34.548 12.5333 34.3754 12.0853 34.03 11.768C33.694 11.4507 33.176 11.292 32.476 11.292H30.6V14.988ZM40.9376 20.098C40.2936 20.098 39.715 19.986 39.2016 19.762C38.6976 19.5287 38.301 19.2113 38.0116 18.81C37.7223 18.3993 37.573 17.928 37.5636 17.396H38.9216C38.9683 17.8533 39.155 18.2407 39.4816 18.558C39.8176 18.866 40.303 19.02 40.9376 19.02C41.5443 19.02 42.0203 18.8707 42.3656 18.572C42.7203 18.264 42.8976 17.872 42.8976 17.396C42.8976 17.0227 42.795 16.7193 42.5896 16.486C42.3843 16.2527 42.1276 16.0753 41.8196 15.954C41.5116 15.8327 41.0963 15.702 40.5736 15.562C39.9296 15.394 39.4116 15.226 39.0196 15.058C38.637 14.89 38.3056 14.6287 38.0256 14.274C37.755 13.91 37.6196 13.4247 37.6196 12.818C37.6196 12.286 37.755 11.8147 38.0256 11.404C38.2963 10.9933 38.6743 10.676 39.1596 10.452C39.6543 10.228 40.219 10.116 40.8536 10.116C41.7683 10.116 42.515 10.3447 43.0936 10.802C43.6816 11.2593 44.013 11.866 44.0876 12.622H42.6876C42.641 12.2487 42.445 11.922 42.0996 11.642C41.7543 11.3527 41.297 11.208 40.7276 11.208C40.1956 11.208 39.7616 11.348 39.4256 11.628C39.0896 11.8987 38.9216 12.2813 38.9216 12.776C38.9216 13.1307 39.0196 13.42 39.2156 13.644C39.421 13.868 39.6683 14.0407 39.9576 14.162C40.2563 14.274 40.6716 14.4047 41.2036 14.554C41.8476 14.7313 42.3656 14.9087 42.7576 15.086C43.1496 15.254 43.4856 15.52 43.7656 15.884C44.0456 16.2387 44.1856 16.724 44.1856 17.34C44.1856 17.816 44.0596 18.264 43.8076 18.684C43.5556 19.104 43.1823 19.4447 42.6876 19.706C42.193 19.9673 41.6096 20.098 40.9376 20.098ZM47.3344 11.278V14.54H50.8904V15.59H47.3344V18.95H51.3104V20H46.0604V10.228H51.3104V11.278H47.3344ZM59.2442 10.242V11.278H56.5842V20H55.3102V11.278H52.6362V10.242H59.2442Z" fill="black"/>
</g>
<rect x="0.5" y="0.5" width="66" height="29" rx="14.5" stroke="black"/>
<defs>
<clipPath id="clip0_22_70">
<rect width="67" height="30" rx="15" fill="white"/>
</clipPath>
</defs>
</svg>
